<svg xmlns="http://www.w3.org/2000/svg" width="1200" height="420" viewBox="0 0 1200 420" fill="none">
<title>Agent Club — Small tools. Big possibilities.</title>
<desc>A warm white editorial banner with electric blue lettering, an orbital globe, and five project color marks.</desc>
<defs>
  <radialGradient id="a"><stop stop-color="#245bea" stop-opacity=".07"/><stop offset="1" stop-color="#245bea" stop-opacity="0"/></radialGradient>
  <clipPath id="clip"><rect width="1200" height="420" rx="16"/></clipPath>
</defs>
<g clip-path="url(#clip)">
<rect width="1200" height="420" rx="16" fill="#f6f5f2"/>
<circle cx="952" cy="210" r="230" fill="url(#a)"/>
<g stroke="#245bea" stroke-width="1" opacity=".19"><ellipse cx="952" cy="210" rx="158" ry="58" transform="rotate(0 952 210)"/><ellipse cx="952" cy="210" rx="158" ry="58" transform="rotate(15 952 210)"/><ellipse cx="952" cy="210" rx="158" ry="58" transform="rotate(30 952 210)"/><ellipse cx="952" cy="210" rx="158" ry="58" transform="rotate(45 952 210)"/><ellipse cx="952" cy="210" rx="158" ry="58" transform="rotate(60 952 210)"/><ellipse cx="952" cy="210" rx="158" ry="58" transform="rotate(75 952 210)"/><ellipse cx="952" cy="210" rx="158" ry="58" transform="rotate(90 952 210)"/><ellipse cx="952" cy="210" rx="158" ry="58" transform="rotate(105 952 210)"/><ellipse cx="952" cy="210" rx="158" ry="58" transform="rotate(120 952 210)"/><ellipse cx="952" cy="210" rx="158" ry="58" transform="rotate(135 952 210)"/><ellipse cx="952" cy="210" rx="158" ry="58" transform="rotate(150 952 210)"/><ellipse cx="952" cy="210" rx="158" ry="58" transform="rotate(165 952 210)"/><ellipse cx="952" cy="210" rx="203" ry="38" transform="rotate(12 952 210)"/><ellipse cx="952" cy="210" rx="203" ry="38" transform="rotate(60 952 210)"/><ellipse cx="952" cy="210" rx="203" ry="38" transform="rotate(110 952 210)"/></g>
<g fill="#245bea">
<circle cx="783" cy="191" r="4"/><circle cx="1048" cy="284" r="4"/><circle cx="976" cy="68" r="3"/>
</g>
<g stroke="#245bea" stroke-width="1.2" opacity=".48">
<path d="M742 59h12m-6-6v12M1152 356h12m-6-6v12M735 327h8m-4-4v8"/>
</g>
<g font-family="-apple-system,BlinkMacSystemFont,Segoe UI,Arial,sans-serif">
<text x="56" y="62" fill="#245bea" font-size="14" font-weight="600" letter-spacing="3">AGENT CLUB / INDEPENDENT BUILDERS</text>
<text x="51" y="163" fill="#16233b" font-size="76" font-weight="700" letter-spacing="-4">Small tools.</text>
<text x="51" y="246" fill="#245bea" font-size="76" font-weight="700" letter-spacing="-4">Big possibilities.</text>
<text x="56" y="297" fill="#526075" font-size="21">Small, sharp tools. Made for real life.</text>
<text x="56" y="378" fill="#526075" font-size="12" letter-spacing="2">DESKTOP / WEB / EXTENSIONS</text>
<text x="1030" y="378" fill="#245bea" font-size="15">agentclub.dev ↗</text>
</g>
<path d="M56 337H1144" stroke="#d9dde5"/>
<g transform="translate(470 368)">
<rect width="18" height="8" rx="4" fill="#245bea"/>
<rect x="25" width="18" height="8" rx="4" fill="#7950a2"/>
<rect x="50" width="18" height="8" rx="4" fill="#ab5b2d"/>
<rect x="75" width="18" height="8" rx="4" fill="#247078"/>
<rect x="100" width="18" height="8" rx="4" fill="#555fa3"/>
<text x="135" y="9" fill="#526075" font-family="monospace" font-size="11" letter-spacing="1">005 → MORE TO COME</text>
</g>
</g>
</svg>
